<?xml version="1.0" encoding="UTF-8" standalone="no"?>
<!DOCTYPE svg PUBLIC "-//W3C//DTD SVG 1.1//EN" "http://www.w3.org/Graphics/SVG/1.1/DTD/svg11.dtd">
<svg xmlns="http://www.w3.org/2000/svg" version="1.1" viewBox="0 0 428 123">
<path fill="#000000" d="   M 73.56 32.94   Q 81.42 39.15 79.25 48.50   Q 77.59 55.68 70.26 59.11   C 69.94 59.26 69.71 59.49 69.61 59.76   L 65.07 71.99   Q 64.53 73.44 64.02 72.04   L 59.55 59.93   C 59.43 59.62 59.20 59.36 58.91 59.23   Q 54.30 57.18 51.72 53.30   Q 49.29 49.64 49.33 44.77   Q 49.40 37.13 55.41 32.84   Q 59.47 29.95 64.22 29.82   Q 69.44 29.68 73.56 32.94   Z   M 57.99 45.56   L 58.42 51.32   C 58.44 51.60 58.66 51.82 58.93 51.82   L 61.65 51.79   C 62.40 51.78 63.00 51.16 63.00 50.39   Q 63.00 47.02 64.62 47.70   C 64.93 47.83 65.13 48.12 65.15 48.44   L 65.28 50.99   C 65.30 51.31 65.48 51.57 65.73 51.62   Q 67.73 52.05 69.70 51.57   C 69.97 51.50 70.17 51.24 70.19 50.93   L 70.40 45.68   C 70.41 45.42 70.63 45.20 70.94 45.14   Q 71.68 45.00 71.67 44.42   C 71.66 44.18 71.46 43.89 71.14 43.66   Q 68.80 41.98 69.17 38.99   C 69.21 38.66 69.11 38.34 68.89 38.15   Q 67.50 36.92 67.00 38.70   Q 66.56 40.28 65.95 38.77   Q 65.42 37.48 64.48 37.12   C 64.22 37.02 63.89 37.11 63.63 37.35   L 56.86 43.90   C 56.62 44.14 56.60 44.49 56.83 44.62   L 57.45 44.97   C 57.77 45.15 57.98 45.38 57.99 45.56   Z"/>
<path fill="#000000" fill-opacity="0.996" d="   M 276.77 87.06   Q 270.56 87.10 264.61 87.07   Q 263.94 87.07 261.55 87.41   Q 258.39 87.87 259.17 84.80   C 259.24 84.52 259.51 84.33 259.81 84.35   Q 264.61 84.56 266.50 80.25   Q 274.80 61.34 281.59 41.82   Q 282.08 40.42 281.30 38.78   C 281.17 38.51 281.32 38.19 281.61 38.11   Q 285.80 36.94 290.29 34.29   C 290.67 34.06 291.17 34.24 291.31 34.66   Q 297.44 52.33 303.23 70.51   Q 304.92 75.82 307.29 80.85   Q 308.27 82.92 309.43 83.54   Q 310.88 84.32 313.06 84.21   C 313.77 84.18 314.39 84.70 314.48 85.41   Q 314.75 87.63 312.40 87.36   Q 311.17 87.22 311.09 87.22   Q 297.27 86.49 293.50 87.25   Q 290.69 87.82 291.04 85.23   C 291.13 84.58 291.73 84.13 292.37 84.23   Q 295.94 84.77 295.69 82.36   Q 295.68 82.29 294.94 79.51   Q 293.38 73.68 291.41 67.74   C 291.31 67.45 291.04 67.25 290.74 67.25   L 276.18 67.25   C 275.75 67.25 275.36 67.52 275.22 67.93   Q 272.90 74.25 271.74 80.05   Q 270.75 84.98 275.77 84.40   Q 278.03 84.14 277.51 86.47   C 277.43 86.82 277.12 87.06 276.77 87.06   Z   M 278.18 59.43   Q 277.41 61.62 276.49 63.77   C 276.33 64.15 276.61 64.57 277.03 64.57   L 289.98 64.51   C 290.31 64.50 290.55 64.19 290.46 63.88   L 285.09 44.80   Q 284.39 42.35 283.50 44.74   Q 280.78 52.07 278.18 59.43   Z"/>
<path fill-opacity="0.996" d="   M 225.42 85.03   Q 226.07 85.81 225.48 86.78   C 225.34 87.02 225.04 87.17 224.69 87.17   L 207.07 87.17   C 206.72 87.17 206.41 87.05 206.22 86.83   Q 205.03 85.45 206.38 84.80   Q 206.79 84.59 208.16 84.64   Q 209.35 84.69 210.17 83.87   C 210.38 83.67 210.50 83.35 210.51 83.00   Q 210.92 66.28 210.76 49.56   Q 210.76 49.45 210.85 47.44   Q 211.07 42.91 206.86 41.50   Q 205.73 41.12 205.33 40.66   Q 204.46 39.67 205.63 38.92   Q 206.07 38.63 207.05 38.38   Q 213.22 36.80 219.28 34.22   C 219.86 33.97 220.51 34.40 220.51 35.03   L 220.74 83.25   C 220.74 83.57 220.91 83.86 221.19 83.99   Q 222.74 84.76 224.57 84.71   C 224.93 84.70 225.24 84.82 225.42 85.03   Z" fill="#000000"/>
<path d="   M 168.92 74.61   Q 169.98 74.34 170.20 75.74   C 170.24 76.05 170.16 76.38 169.96 76.66   Q 161.11 89.21 145.00 87.75   Q 134.57 86.80 128.55 79.88   Q 124.25 74.95 122.76 67.69   Q 121.30 60.61 123.36 53.78   Q 125.78 45.74 131.87 40.74   Q 138.28 35.47 147.31 35.06   Q 155.42 34.70 163.29 38.29   C 163.59 38.42 163.92 38.37 164.12 38.17   Q 164.69 37.59 164.94 36.80   C 165.06 36.43 165.24 36.14 165.45 36.00   Q 166.42 35.34 167.11 36.13   Q 167.48 36.56 167.56 37.47   Q 168.23 44.96 169.13 52.43   C 169.17 52.79 169.08 53.11 168.89 53.33   Q 168.06 54.26 166.99 53.71   C 166.73 53.58 166.53 53.31 166.41 52.97   Q 164.19 46.30 159.07 42.25   Q 153.77 38.07 147.47 38.32   Q 140.95 38.58 137.25 43.93   Q 134.50 47.90 133.69 54.17   Q 132.47 63.61 136.72 72.55   Q 139.33 78.06 144.25 80.69   Q 148.82 83.14 154.58 82.39   Q 162.17 81.42 167.65 75.54   Q 168.38 74.74 168.92 74.61   Z" fill="#000000"/>
<ellipse fill-opacity="0.996" cx="0.00" cy="0.00" transform="translate(235.94,45.62) rotate(-5.6)" rx="5.18" ry="4.43" fill="#000000"/>
<path d="   M 200.57 82.48   C 200.86 83.31 201.84 83.65 202.58 83.18   Q 206.18 80.91 205.50 83.52   Q 205.27 84.39 204.51 85.12   Q 197.74 91.57 191.81 84.15   C 191.64 83.94 191.33 83.90 191.12 84.07   Q 186.42 87.94 180.24 88.00   Q 177.70 88.02 176.48 85.79   Q 174.68 82.46 175.66 79.11   Q 176.38 76.65 178.82 74.60   Q 180.99 72.78 183.67 71.64   Q 187.03 70.22 190.13 68.33   C 190.40 68.17 190.58 67.88 190.62 67.56   Q 191.15 63.13 190.69 62.06   Q 188.71 57.55 183.48 60.17   C 182.57 60.62 182.10 61.65 182.36 62.63   Q 183.41 66.61 180.39 68.11   Q 178.59 69.00 176.90 68.54   Q 174.48 67.89 175.25 64.50   Q 175.88 61.79 178.17 60.16   Q 185.73 54.76 194.50 56.25   Q 197.23 56.71 198.72 58.88   Q 199.74 60.36 199.86 63.36   Q 200.17 70.67 200.01 77.99   Q 199.96 80.67 200.57 82.48   Z   M 185.44 74.94   Q 183.35 78.66 185.32 82.46   C 185.65 83.09 186.29 83.49 187.00 83.51   Q 191.17 83.62 190.95 79.24   Q 190.75 75.35 190.80 71.44   C 190.80 71.19 190.57 71.01 190.34 71.09   Q 186.94 72.26 185.44 74.94   Z" fill="#000000"/>
<path fill-opacity="0.996" d="   M 242.29 84.31   L 244.95 84.58   C 245.34 84.62 245.65 84.74 245.80 84.90   Q 246.87 86.03 245.73 86.85   Q 245.16 87.26 244.17 87.21   Q 236.46 86.83 228.75 87.15   Q 226.55 87.24 227.30 85.21   C 227.42 84.89 227.69 84.67 227.99 84.64   L 230.40 84.42   C 231.28 84.34 231.96 83.74 231.95 83.04   L 231.75 64.98   Q 231.73 63.24 230.00 62.61   Q 227.31 61.64 227.79 60.53   Q 228.06 59.89 229.53 59.41   Q 234.88 57.67 240.27 55.99   C 241.02 55.76 241.77 56.35 241.73 57.13   Q 241.10 70.22 241.79 83.68   C 241.81 84.01 242.02 84.28 242.29 84.31   Z" fill="#000000"/>
<path d="   M 359.02 70.37   Q 359.15 72.74 359.81 75.15   Q 360.55 77.80 361.98 79.38   Q 365.35 83.11 371.00 82.00   Q 374.30 81.35 376.27 78.72   C 376.47 78.45 376.76 78.29 377.06 78.29   Q 379.54 78.26 378.31 80.56   Q 376.31 84.32 372.25 86.31   Q 368.83 87.99 364.39 87.85   Q 353.25 87.50 350.71 77.28   Q 349.35 71.78 350.78 66.74   Q 352.46 60.80 357.72 57.97   Q 363.45 54.89 369.58 56.46   Q 377.16 58.40 377.70 67.70   C 377.75 68.54 377.08 69.25 376.24 69.25   L 360.08 69.25   C 359.47 69.25 358.99 69.76 359.02 70.37   Z   M 360.96 60.95   Q 359.68 63.04 359.47 65.92   C 359.45 66.22 359.67 66.47 359.95 66.46   L 367.47 66.28   C 368.00 66.27 368.43 65.81 368.48 65.22   Q 368.70 62.34 367.29 60.29   Q 366.12 58.61 364.25 58.76   Q 362.21 58.92 360.96 60.95   Z" fill="#000000"/>
<path fill-opacity="0.996" d="   M 315.15 59.65   Q 314.52 59.42 313.81 59.41   C 313.45 59.41 313.13 59.31 312.91 59.14   Q 310.81 57.47 313.15 56.90   Q 313.77 56.75 314.87 56.75   Q 322.28 56.71 329.68 56.80   C 330.03 56.81 330.33 56.96 330.49 57.21   Q 331.20 58.32 330.15 59.21   C 329.95 59.38 329.62 59.45 329.26 59.39   Q 328.07 59.22 327.49 60.06   C 327.33 60.29 327.29 60.63 327.38 60.98   Q 329.58 68.94 333.02 76.34   Q 333.45 77.27 333.85 76.32   Q 336.64 69.69 339.06 63.40   Q 339.69 61.76 339.54 61.03   Q 339.25 59.58 337.03 59.48   C 336.72 59.46 336.45 59.26 336.34 58.97   Q 335.44 56.61 337.75 56.64   Q 343.34 56.70 348.93 56.80   C 349.27 56.81 349.57 56.97 349.71 57.23   Q 350.44 58.55 349.21 59.28   C 348.97 59.42 348.63 59.46 348.26 59.40   Q 345.85 59.03 344.81 60.81   Q 339.40 70.14 332.38 85.94   Q 331.77 87.31 331.19 87.72   Q 330.31 88.35 329.32 87.65   Q 328.79 87.26 328.30 86.29   Q 323.12 75.97 318.71 65.30   Q 317.75 62.96 316.42 60.82   Q 315.87 59.92 315.15 59.65   Z" fill="#000000"/>
<path d="   M 90.60 77.93   L 100.83 89.01   Q 101.74 90.00 100.38 90.00   L 27.97 90.00   Q 26.27 90.00 27.42 88.76   L 37.75 77.59   C 38.10 77.21 38.60 77.00 39.13 77.00   L 88.41 77.00   C 89.26 77.00 90.05 77.34 90.60 77.93   Z   M 51.6883 83.3765   C 51.69 83.01 51.39 82.72 51.0237 82.7211   L 37.0040 82.8190   C 36.64 82.82 36.35 83.12 36.3487 83.4836   L 36.3517 83.9235   C 36.35 84.29 36.65 84.58 37.0163 84.5789   L 51.0360 84.4810   C 51.40 84.48 51.69 84.18 51.6913 83.8164   L 51.6883 83.3765   Z   M 72.1702 83.5641   C 72.17 83.13 71.82 82.77 71.3815 82.7727   L 56.8416 82.7473   C 56.41 82.75 56.05 83.10 56.0502 83.5359   L 56.0498 83.7359   C 56.05 84.17 56.40 84.53 56.8385 84.5273   L 71.3784 84.5527   C 71.81 84.55 72.17 84.20 72.1698 83.7641   L 72.1702 83.5641   Z   M 91.8341 83.0939   C 91.84 82.95 91.72 82.83 91.5759 82.8321   L 76.6563 82.7279   C 76.51 82.73 76.40 82.84 76.3944 82.9861   L 76.3859 84.2061   C 76.38 84.35 76.50 84.47 76.6441 84.4679   L 91.5637 84.5721   C 91.71 84.57 91.82 84.46 91.8256 84.3139   L 91.8341 83.0939   Z" fill="#000000"/>
<circle cx="390.31" cy="82.52" r="5.49" fill="#000000"/>
</svg>